<?xml version="1.0" encoding="utf-8"?>
<!-- Generator: Adobe Illustrator 24.1.3, SVG Export Plug-In . SVG Version: 6.00 Build 0)  -->
<svg version="1.1" id="Capa_1" xmlns="http://www.w3.org/2000/svg" xmlns:xlink="http://www.w3.org/1999/xlink" x="0px" y="0px"
	 viewBox="0 0 54.5 123.7" style="enable-background:new 0 0 54.5 123.7;" xml:space="preserve">
<style type="text/css">
	.st0{fill:#FFFFFF;}
	.st1{fill:#1E87F9;}
	.st2{enable-background:new    ;}
</style>
<path class="st0" d="M45.4,123.7H9.1c-5,0-9.1-4.1-9.1-9.1V9.1C0,4.1,4.1,0,9.1,0h36.4c5,0,9.1,4.1,9.1,9.1v105.6
	C54.5,119.6,50.4,123.7,45.4,123.7z"/>
<g>
	<g>
		<path class="st1" d="M5,0C2.2,0,0,2.2,0,5v113.7c0,2.7,2.2,5,5,5h49.5V0H5z M27.4,15.5h1.8V20h2.1v-3.8h1.8V20h2.4v-4.5h1.8v6.9
			h-9.9V15.5z M27.4,23.4h1.8v3h8.1v2.4h-8.1v2.9h-1.8V23.4z M27.9,34c0.4-0.7,1-1.2,1.7-1.5s1.6-0.5,2.5-0.6h0.5
			c1,0,1.8,0.2,2.6,0.5c0.8,0.4,1.3,0.9,1.7,1.5c0.4,0.7,0.6,1.4,0.6,2.3c0,0.9-0.2,1.6-0.6,2.3c-0.4,0.7-1,1.2-1.7,1.5
			c-0.7,0.4-1.6,0.6-2.5,0.6h-0.6c-1,0-1.8-0.2-2.6-0.5c-0.7-0.3-1.3-0.9-1.7-1.5c-0.4-0.7-0.6-1.4-0.6-2.3S27.5,34.7,27.9,34z
			 M35.2,44.6c-0.3-0.3-0.7-0.4-1.3-0.4h-6.5v-2.4h6.5c0.7,0,1.4,0.2,1.9,0.5c0.5,0.3,1,0.8,1.2,1.4c0.3,0.6,0.4,1.3,0.4,2.1
			c0,1.2-0.3,2.2-1,2.9c-0.6,0.7-1.5,1-2.6,1.1h-6.6v-2.4H34c1.1,0,1.6-0.5,1.6-1.5C35.6,45.2,35.5,44.9,35.2,44.6z M20.4,64.3
			L19,65.5l-5.6-6l5.6-6l1.4,1.3L16,59.5L20.4,64.3z M30.5,72l-3.1-2.1v-3l4.4,3.4l5.5-3.4v2.8l-3.7,2.1l1.1,1h2.6v2.4h-9.9v-2.4
			h4.4L30.5,72z M28.2,77.6c0.6-0.7,1.5-1.2,2.6-1.3v2.4c-0.6,0-1,0.2-1.3,0.5c-0.3,0.3-0.4,0.7-0.4,1.3c0,0.6,0.2,1,0.7,1.3
			c0.5,0.3,1.2,0.4,2.1,0.4h0.7c1.1,0,1.8-0.1,2.3-0.4c0.5-0.3,0.7-0.7,0.7-1.4c0-0.6-0.1-1-0.4-1.3c-0.3-0.3-0.7-0.4-1.2-0.5v-2.4
			c0.7,0,1.3,0.2,1.8,0.6c0.5,0.3,1,0.8,1.2,1.4c0.3,0.6,0.4,1.3,0.4,2.1c0,1.3-0.4,2.3-1.3,3.1c-0.9,0.8-2.1,1.1-3.6,1.1h-0.5
			c-1,0-1.8-0.2-2.6-0.5c-0.7-0.3-1.3-0.8-1.7-1.5c-0.4-0.6-0.6-1.4-0.6-2.2C27.3,79.3,27.6,78.3,28.2,77.6z M35.2,92.9
			c-0.3-0.3-0.7-0.4-1.3-0.4h-6.5v-2.4h6.5c0.7,0,1.4,0.2,1.9,0.5c0.5,0.3,1,0.8,1.2,1.4c0.3,0.6,0.4,1.3,0.4,2.1
			c0,1.2-0.3,2.2-1,2.9C35.9,97.6,35,98,34,98h-6.6v-2.4H34c1.1,0,1.6-0.5,1.6-1.5C35.6,93.5,35.5,93.2,35.2,92.9z M27.4,88.5v-2.4
			h9.9v2.4H27.4z M37.5,103.5c0,0.8-0.2,1.6-0.6,2.3c-0.4,0.7-1,1.2-1.7,1.5c-0.7,0.4-1.6,0.6-2.5,0.6h-0.5c-1,0-1.8-0.2-2.6-0.5
			c-0.7-0.4-1.3-0.9-1.7-1.5c-0.4-0.7-0.6-1.4-0.6-2.3c0-0.8,0.2-1.6,0.6-2.3c0.4-0.7,1-1.2,1.7-1.5c0.7-0.4,1.6-0.5,2.5-0.5h0.5
			c0.9,0,1.7,0.1,2.4,0.4c0.7,0.3,1.2,0.7,1.7,1.3l1.3-1.6l1.3,1.5l-1.7,2.1C37.5,103.1,37.5,103.3,37.5,103.5z M37.4,54.6
			c0,0.2,0,0.4,0,0.6c0,0.8-0.2,1.6-0.6,2.3c-0.4,0.7-1,1.2-1.7,1.5c-0.7,0.4-1.6,0.6-2.5,0.6h-0.5c-1,0-1.8-0.2-2.6-0.5
			c-0.7-0.3-1.3-0.9-1.7-1.5c-0.4-0.7-0.6-1.4-0.6-2.3c0-0.8,0.2-1.6,0.6-2.3c0.4-0.7,1-1.2,1.7-1.5c0.7-0.4,1.6-0.6,2.5-0.6h0.5
			c0.9,0,1.7,0.2,2.4,0.5c0.7,0.3,1.2,0.7,1.7,1.3l1.3-1.6l1.3,1.5L37.4,54.6z"/>
		<g class="st2">
			<path class="st1" d="M35.6,103.5c0,0.6-0.3,1.1-0.8,1.4c-0.5,0.3-1.3,0.5-2.3,0.5h-0.5c-1,0-1.7-0.2-2.2-0.5
				c-0.5-0.3-0.8-0.8-0.8-1.4c0-0.6,0.3-1.1,0.8-1.4c0.5-0.3,1.3-0.5,2.3-0.5h0.5c1,0,1.7,0.2,2.2,0.5
				C35.3,102.4,35.6,102.9,35.6,103.5z"/>
			<path class="st1" d="M35.6,55.2c0,0.6-0.3,1.1-0.8,1.4c-0.5,0.3-1.3,0.5-2.3,0.5h-0.5c-1,0-1.7-0.2-2.2-0.5
				c-0.5-0.3-0.8-0.8-0.8-1.4c0-0.6,0.3-1.1,0.8-1.4c0.5-0.3,1.3-0.5,2.3-0.5h0.5c1,0,1.7,0.2,2.2,0.5
				C35.3,54.1,35.6,54.6,35.6,55.2z"/>
			<path class="st1" d="M35.6,36.2c0,0.6-0.3,1.1-0.8,1.4c-0.5,0.3-1.3,0.5-2.3,0.5l-0.7,0c-1.8-0.1-2.7-0.7-2.7-1.9
				c0-0.6,0.3-1.1,0.8-1.4c0.5-0.3,1.3-0.5,2.3-0.5h0.5c1,0,1.7,0.2,2.2,0.5C35.3,35.2,35.6,35.6,35.6,36.2z"/>
		</g>
	</g>
	<g id="ILS">
	</g>
</g>
</svg>
