<?xml version="1.0" encoding="utf-8"?>
<!-- Generator: Adobe Illustrator 25.4.1, SVG Export Plug-In . SVG Version: 6.00 Build 0)  -->
<svg version="1.1" id="Capa_1" xmlns="http://www.w3.org/2000/svg" xmlns:xlink="http://www.w3.org/1999/xlink" x="0px" y="0px"
	 viewBox="0 0 200 200" style="enable-background:new 0 0 200 200;" xml:space="preserve">
<style type="text/css">
	.st0{fill:#DADADA;}
	.st1{fill:#C6C6C6;}
	.st2{fill:#072446;}
	.st3{fill:#706F6F;}
	.st4{fill:#008089;}
</style>
<g>
	<g>
		<path class="st0" d="M155.5,19.4c-0.9-2.5-14.1,0.3-29.4,6.1c-15.3,5.9-26.9,12.6-25.9,15.1c0.9,2.5,14.1-0.3,29.4-6.1
			C144.9,28.6,156.5,21.9,155.5,19.4z"/>
		<path class="st1" d="M11.4,196.5H1.8V164C1.1,122.3-7.5,61.7,20.3,49.7l23.8-10.1l3.6,8.9L24,58.5C-0.3,73.4,9.1,123.6,9.6,162.7
			L11.4,196.5z"/>
		<path class="st2" d="M137.8,15.2L133.4,4L79.6,24.7c-0.8-1.7-3.4-2.2-5.8-1.1L33.1,42c-1.2,0.6-1.8,2-1.4,3.2l2.8,7.4
			c0.5,1.2,1.9,1.9,3.1,1.5l42.6-13.5c2.6-0.8,4.2-2.9,3.6-4.7L137.8,15.2z"/>
		<path class="st1" d="M154,13.8c-4.2-10-19.8-13.4-35.3-7.4S94,25.3,97.6,35.5L154,13.8z"/>
		<polygon class="st2" points="155.5,19.4 100.2,40.6 97.6,35.5 154,13.8 		"/>
	</g>
	<g>
		<ellipse transform="matrix(0.9755 -0.22 0.22 0.9755 -5.7717 25.675)" class="st3" cx="112.4" cy="38.8" rx="2.1" ry="0.7"/>
		<ellipse transform="matrix(0.866 -0.5 0.5 0.866 8.0386 77.8883)" class="st3" cx="149.4" cy="23.9" rx="2.1" ry="0.7"/>
		<ellipse transform="matrix(0.9405 -0.3399 0.3399 0.9405 -3.3545 46.6367)" class="st3" cx="131.5" cy="32.9" rx="2.1" ry="0.7"/>
		<ellipse transform="matrix(0.9554 -0.2954 0.2954 0.9554 -4.6983 37.4537)" class="st3" cx="121.6" cy="34.3" rx="1.3" ry="0.4"/>
		<ellipse transform="matrix(0.9336 -0.3582 0.3582 0.9336 -0.3474 52.1534)" class="st3" cx="140.6" cy="27" rx="1.3" ry="0.4"/>
		<ellipse transform="matrix(0.9336 -0.3582 0.3582 0.9336 -1.9656 49.106)" class="st3" cx="131.6" cy="29.9" rx="1.3" ry="0.4"/>
		<ellipse transform="matrix(0.9554 -0.2954 0.2954 0.9554 -4.8841 38.5938)" class="st3" cx="125.3" cy="35.5" rx="0.7" ry="0.2"/>
		<ellipse transform="matrix(0.8896 -0.4567 0.4567 0.8896 1.1028 65.9641)" class="st3" cx="137" cy="30.7" rx="0.7" ry="0.2"/>
		<ellipse transform="matrix(0.8917 -0.4527 0.4527 0.8917 3.4629 68.5103)" class="st3" cx="144.9" cy="27" rx="0.7" ry="0.2"/>
		<ellipse transform="matrix(0.9554 -0.2954 0.2954 0.9554 -5.99 36.4426)" class="st3" cx="117.6" cy="38" rx="0.7" ry="0.2"/>
	</g>
	<g>
		<g>
			<path class="st4" d="M111.3,47C111.2,47,111.2,47,111.3,47c-0.6,0-1-0.5-0.9-1s0.5-1,1-0.9c0.5,0,0.9,0.4,0.8,0.9l0,0.2
				C112.1,46.7,111.7,47,111.3,47z"/>
			<path class="st4" d="M102.2,164.5C102.1,164.5,102.1,164.5,102.2,164.5c-0.6,0-1-0.5-0.9-1l0-0.4c0-0.5,0.4-0.9,1-0.8
				c0.5,0,0.9,0.5,0.8,1l0,0.4C103,164.1,102.6,164.5,102.2,164.5z M102.5,160.4C102.5,160.4,102.4,160.4,102.5,160.4
				c-0.6,0-1-0.5-0.9-1l0-0.4c0-0.5,0.4-0.9,1-0.8c0.5,0,0.9,0.5,0.8,1l0,0.4C103.4,160.1,103,160.4,102.5,160.4z M102.8,156.4
				C102.8,156.4,102.7,156.4,102.8,156.4c-0.6,0-1-0.5-0.9-1l0-0.4c0-0.5,0.4-0.9,1-0.8c0.5,0,0.9,0.5,0.8,1l0,0.4
				C103.7,156,103.3,156.4,102.8,156.4z M103.1,152.3C103.1,152.3,103.1,152.3,103.1,152.3c-0.6,0-1-0.5-0.9-1l0-0.4
				c0-0.5,0.4-0.9,1-0.8c0.5,0,0.9,0.5,0.8,1l0,0.4C104,152,103.6,152.3,103.1,152.3z M103.4,148.3
				C103.4,148.3,103.4,148.3,103.4,148.3c-0.6,0-1-0.5-0.9-1l0-0.4c0-0.5,0.4-0.9,1-0.8c0.5,0,0.9,0.5,0.8,1l0,0.4
				C104.3,147.9,103.9,148.3,103.4,148.3z M103.7,144.2C103.7,144.2,103.7,144.2,103.7,144.2c-0.6,0-1-0.5-0.9-1l0-0.4
				c0-0.5,0.4-0.8,0.9-0.8c0,0,0,0,0.1,0c0.5,0,0.9,0.5,0.8,1l0,0.4C104.6,143.9,104.2,144.2,103.7,144.2z M104.1,140.2
				C104,140.2,104,140.2,104.1,140.2c-0.6,0-1-0.5-0.9-1l0-0.4c0-0.5,0.4-0.9,1-0.8c0.5,0,0.9,0.5,0.8,1l0,0.4
				C104.9,139.8,104.5,140.2,104.1,140.2z M104.4,136.1C104.3,136.1,104.3,136.1,104.4,136.1c-0.6,0-1-0.5-0.9-1l0-0.4
				c0-0.5,0.4-0.9,1-0.8c0.5,0,0.9,0.5,0.8,1l0,0.4C105.2,135.8,104.8,136.1,104.4,136.1z M104.7,132.1
				C104.7,132.1,104.6,132.1,104.7,132.1c-0.6,0-1-0.5-0.9-1l0-0.4c0-0.5,0.4-0.9,1-0.8c0.5,0,0.9,0.5,0.8,1l0,0.4
				C105.6,131.7,105.2,132.1,104.7,132.1z M105,128C105,128,104.9,128,105,128c-0.6,0-1-0.5-0.9-1l0-0.4c0-0.5,0.4-0.9,1-0.8
				c0.5,0,0.9,0.5,0.8,1l0,0.4C105.9,127.7,105.5,128,105,128z M105.3,124C105.3,124,105.3,124,105.3,124c-0.6,0-1-0.5-0.9-1l0-0.4
				c0-0.5,0.4-0.9,1-0.8c0.5,0,0.9,0.5,0.8,1l0,0.4C106.2,123.6,105.8,124,105.3,124z M105.6,119.9
				C105.6,119.9,105.6,119.9,105.6,119.9c-0.6,0-1-0.5-0.9-1l0-0.4c0-0.5,0.4-0.9,1-0.8c0.5,0,0.9,0.5,0.8,1l0,0.4
				C106.5,119.6,106.1,119.9,105.6,119.9z M105.9,115.9C105.9,115.9,105.9,115.9,105.9,115.9c-0.6,0-1-0.5-0.9-1l0-0.4
				c0-0.5,0.4-0.9,1-0.8c0.5,0,0.9,0.5,0.8,1l0,0.4C106.8,115.5,106.4,115.9,105.9,115.9z M106.2,111.8
				C106.2,111.8,106.2,111.8,106.2,111.8c-0.6,0-1-0.5-0.9-1l0-0.4c0-0.5,0.4-0.9,1-0.8c0.5,0,0.9,0.5,0.8,1l0,0.4
				C107.1,111.5,106.7,111.8,106.2,111.8z M106.6,107.8C106.5,107.8,106.5,107.8,106.6,107.8c-0.6,0-1-0.5-0.9-1l0-0.4
				c0-0.5,0.4-0.9,1-0.8c0.5,0,0.9,0.5,0.8,1l0,0.4C107.4,107.4,107,107.8,106.6,107.8z M106.9,103.7
				C106.9,103.7,106.8,103.7,106.9,103.7c-0.6,0-1-0.5-0.9-1l0-0.4c0-0.5,0.4-0.9,1-0.8c0.5,0,0.9,0.5,0.8,1l0,0.4
				C107.7,103.4,107.3,103.7,106.9,103.7z M107.2,99.7C107.2,99.7,107.1,99.7,107.2,99.7c-0.6,0-1-0.5-0.9-1l0-0.4
				c0-0.5,0.4-0.9,1-0.8c0.5,0,0.9,0.5,0.8,1l0,0.4C108.1,99.3,107.7,99.7,107.2,99.7z M107.5,95.6
				C107.5,95.6,107.5,95.6,107.5,95.6c-0.6,0-1-0.5-0.9-1l0-0.4c0-0.5,0.4-0.9,1-0.8c0.5,0,0.9,0.5,0.8,1l0,0.4
				C108.4,95.3,108,95.6,107.5,95.6z M107.8,91.6C107.8,91.6,107.8,91.6,107.8,91.6c-0.6,0-1-0.5-0.9-1l0-0.4c0-0.5,0.4-0.9,1-0.8
				c0.5,0,0.9,0.5,0.8,1l0,0.4C108.7,91.2,108.3,91.6,107.8,91.6z M108.1,87.5C108.1,87.5,108.1,87.5,108.1,87.5c-0.6,0-1-0.5-0.9-1
				l0-0.4c0-0.5,0.4-0.9,1-0.8c0.5,0,0.9,0.5,0.8,1l0,0.4C109,87.2,108.6,87.5,108.1,87.5z M108.4,83.5
				C108.4,83.5,108.4,83.5,108.4,83.5c-0.6,0-1-0.5-0.9-1l0-0.4c0-0.5,0.4-0.9,1-0.8c0.5,0,0.9,0.5,0.8,1l0,0.4
				C109.3,83.1,108.9,83.5,108.4,83.5z M108.8,79.4C108.7,79.4,108.7,79.4,108.8,79.4c-0.6,0-1-0.5-0.9-1l0-0.4c0-0.5,0.4-0.9,1-0.8
				c0.5,0,0.9,0.5,0.8,1l0,0.4C109.6,79.1,109.2,79.4,108.8,79.4z M109.1,75.4C109,75.4,109,75.4,109.1,75.4c-0.6,0-1-0.5-0.9-1
				l0-0.4c0-0.5,0.4-0.9,1-0.8c0.5,0,0.9,0.5,0.8,1l0,0.4C109.9,75,109.5,75.4,109.1,75.4z M109.4,71.3
				C109.4,71.3,109.3,71.3,109.4,71.3c-0.6,0-1-0.5-0.9-1l0-0.4c0-0.5,0.4-1,1-0.8c0.5,0,0.9,0.5,0.8,1l0,0.4
				C110.3,71,109.9,71.3,109.4,71.3z M109.7,67.3C109.7,67.3,109.7,67.3,109.7,67.3c-0.6,0-1-0.5-0.9-1l0-0.4c0-0.5,0.4-0.9,1-0.8
				c0.5,0,0.9,0.5,0.8,1l0,0.4C110.6,66.9,110.2,67.3,109.7,67.3z M110,63.2C110,63.2,110,63.2,110,63.2c-0.6,0-1-0.5-0.9-1l0-0.4
				c0-0.5,0.4-0.9,1-0.8c0.5,0,0.9,0.5,0.8,1l0,0.4C110.9,62.9,110.5,63.2,110,63.2z M110.3,59.2C110.3,59.2,110.3,59.2,110.3,59.2
				c-0.6,0-1-0.5-0.9-1l0-0.4c0-0.5,0.4-0.9,1-0.8c0.5,0,0.9,0.5,0.8,1l0,0.4C111.2,58.8,110.8,59.2,110.3,59.2z M110.6,55.1
				C110.6,55.1,110.6,55.1,110.6,55.1c-0.6,0-1-0.5-0.9-1l0-0.4c0-0.5,0.4-0.9,1-0.8c0.5,0,0.9,0.5,0.8,1l0,0.4
				C111.5,54.8,111.1,55.1,110.6,55.1z M111,51.1C110.9,51.1,110.9,51.1,111,51.1c-0.6,0-1-0.5-0.9-1l0-0.4c0-0.5,0.4-0.9,1-0.8
				c0.5,0,0.9,0.5,0.8,1l0,0.4C111.8,50.7,111.4,51.1,111,51.1z"/>
			<path class="st4" d="M101.9,168.4C101.9,168.4,101.8,168.4,101.9,168.4c-0.6,0-1-0.5-0.9-1c0-0.5,0.5-1,1-0.9
				c0.5,0,0.9,0.4,0.8,0.9l0,0.2C102.7,168,102.3,168.4,101.9,168.4z"/>
		</g>
		<g>
			<path class="st4" d="M150.9,32.4c-0.4,0-0.7-0.2-0.9-0.6c-0.2-0.5,0-1.1,0.5-1.3c0.5-0.2,1,0,1.2,0.4l0.1,0.2
				c0.2,0.5,0,1-0.5,1.2C151.2,32.4,151.1,32.4,150.9,32.4z"/>
			<path class="st4" d="M197.6,147.8c-0.4,0-0.7-0.2-0.9-0.6l-0.1-0.3c-0.2-0.5,0-1,0.5-1.2c0.5-0.2,1,0,1.2,0.5l0.1,0.3
				c0.2,0.5,0,1-0.5,1.2C197.9,147.8,197.8,147.8,197.6,147.8z M196.1,144.1c-0.4,0-0.7-0.2-0.9-0.6l-0.1-0.3c-0.2-0.5,0-1,0.5-1.2
				c0.5-0.2,1,0,1.2,0.5l0.1,0.3c0.2,0.5,0,1-0.5,1.2C196.4,144.1,196.3,144.1,196.1,144.1z M194.6,140.4c-0.4,0-0.7-0.2-0.8-0.6
				l-0.1-0.3c-0.2-0.5,0-1,0.5-1.2c0.5-0.2,1,0,1.2,0.5l0.1,0.3c0.2,0.5,0,1-0.5,1.2C194.9,140.4,194.8,140.4,194.6,140.4z
				 M193.1,136.7c-0.4,0-0.7-0.2-0.9-0.6l-0.1-0.3c-0.2-0.5,0-1,0.5-1.2c0.5-0.2,1,0,1.2,0.5l0.1,0.3c0.2,0.5,0,1-0.5,1.2
				C193.4,136.7,193.2,136.7,193.1,136.7z M191.6,133c-0.4,0-0.7-0.2-0.9-0.6l-0.1-0.3c-0.2-0.5,0-1,0.5-1.2c0.5-0.2,1,0,1.2,0.5
				l0.1,0.3c0.2,0.5,0,1-0.5,1.2C191.8,132.9,191.7,133,191.6,133z M190.1,129.2c-0.4,0-0.7-0.2-0.8-0.6l-0.1-0.3
				c-0.2-0.5,0-1,0.5-1.2c0.5-0.2,1,0,1.2,0.5l0.1,0.3c0.2,0.5,0,1-0.5,1.2C190.4,129.2,190.2,129.2,190.1,129.2z M188.6,125.5
				c-0.4,0-0.7-0.2-0.8-0.6l-0.1-0.3c-0.2-0.5,0-1,0.5-1.2c0.5-0.2,1,0,1.2,0.5l0.1,0.3c0.2,0.5,0,1-0.5,1.2
				C188.8,125.5,188.7,125.5,188.6,125.5z M187.1,121.8c-0.4,0-0.7-0.2-0.9-0.6l-0.1-0.3c-0.2-0.5,0-1,0.5-1.2c0.5-0.2,1,0,1.2,0.5
				l0.1,0.3c0.2,0.5,0,1-0.5,1.2C187.3,121.8,187.2,121.8,187.1,121.8z M185.6,118.1c-0.4,0-0.7-0.2-0.9-0.6l-0.1-0.3
				c-0.2-0.5,0-1,0.5-1.2c0.5-0.2,1,0,1.2,0.5l0.1,0.3c0.2,0.5,0,1-0.5,1.2C185.8,118,185.7,118.1,185.6,118.1z M184.1,114.3
				c-0.4,0-0.7-0.2-0.8-0.6l-0.1-0.3c-0.2-0.5,0-1,0.5-1.2c0.5-0.2,1,0,1.2,0.5l0.1,0.3c0.2,0.5,0,1-0.5,1.2
				C184.3,114.3,184.2,114.3,184.1,114.3z M182.6,110.6c-0.4,0-0.7-0.2-0.9-0.6l-0.1-0.3c-0.2-0.5,0-1,0.5-1.2c0.5-0.2,1,0,1.2,0.5
				l0.1,0.3c0.2,0.5,0,1-0.5,1.2C182.8,110.6,182.7,110.6,182.6,110.6z M181.1,106.9c-0.4,0-0.7-0.2-0.9-0.6l-0.1-0.3
				c-0.2-0.5,0-1,0.5-1.2c0.5-0.2,1,0,1.2,0.5l0.1,0.3c0.2,0.5,0,1-0.5,1.2C181.3,106.9,181.2,106.9,181.1,106.9z M179.6,103.2
				c-0.4,0-0.7-0.2-0.9-0.6l-0.1-0.3c-0.2-0.5,0-1,0.5-1.2c0.5-0.2,1,0,1.2,0.5l0.1,0.3c0.2,0.5,0,1-0.5,1.2
				C179.8,103.1,179.7,103.2,179.6,103.2z M178.1,99.4c-0.4,0-0.7-0.2-0.8-0.6l-0.1-0.3c-0.2-0.5,0-1,0.5-1.2c0.5-0.2,1,0,1.2,0.5
				l0.1,0.3c0.2,0.5,0,1-0.5,1.2C178.3,99.4,178.2,99.4,178.1,99.4z M176.6,95.7c-0.4,0-0.7-0.2-0.9-0.6l-0.1-0.3
				c-0.2-0.5,0-1,0.5-1.2c0.5-0.2,1,0,1.2,0.5l0.1,0.3c0.2,0.5,0,1-0.5,1.2C176.8,95.7,176.7,95.7,176.6,95.7z M175,92
				c-0.4,0-0.7-0.2-0.9-0.6l-0.1-0.3c-0.2-0.5,0-1,0.5-1.2c0.5-0.2,1,0,1.2,0.5l0.1,0.3c0.2,0.5,0,1-0.5,1.2
				C175.3,92,175.2,92,175,92z M173.5,88.3c-0.4,0-0.7-0.2-0.8-0.6l-0.1-0.3c-0.2-0.5,0-1,0.5-1.2c0.5-0.2,1,0,1.2,0.5l0.1,0.3
				c0.2,0.5,0,1-0.5,1.2C173.8,88.2,173.7,88.3,173.5,88.3z M172,84.5c-0.4,0-0.7-0.2-0.8-0.6l-0.1-0.3c-0.2-0.5,0-1,0.5-1.2
				c0.5-0.2,1,0,1.2,0.5l0.1,0.3c0.2,0.5,0,1-0.5,1.2C172.3,84.5,172.1,84.5,172,84.5z M170.5,80.8c-0.4,0-0.7-0.2-0.9-0.6l-0.1-0.3
				c-0.2-0.5,0-1,0.5-1.2c0.5-0.2,1,0,1.2,0.5l0.1,0.3c0.2,0.5,0,1-0.5,1.2C170.8,80.8,170.6,80.8,170.5,80.8z M169,77.1
				c-0.4,0-0.7-0.2-0.9-0.6l-0.1-0.3c-0.2-0.5,0-1,0.5-1.2c0.5-0.2,1,0,1.2,0.5l0.1,0.3c0.2,0.5,0,1-0.5,1.2
				C169.2,77.1,169.1,77.1,169,77.1z M167.5,73.4c-0.4,0-0.7-0.2-0.8-0.6l-0.1-0.3c-0.2-0.5,0-1,0.5-1.2c0.5-0.2,1,0,1.2,0.5
				l0.1,0.3c0.2,0.5,0,1-0.5,1.2C167.7,73.3,167.6,73.4,167.5,73.4z M166,69.6c-0.4,0-0.7-0.2-0.9-0.6l-0.1-0.3
				c-0.2-0.5,0-1,0.5-1.2c0.5-0.2,1,0,1.2,0.5l0.1,0.3c0.2,0.5,0,1-0.5,1.2C166.2,69.6,166.1,69.6,166,69.6z M164.5,65.9
				c-0.4,0-0.7-0.2-0.9-0.6l-0.1-0.3c-0.2-0.5,0-1,0.5-1.2c0.5-0.2,1,0,1.2,0.5l0.1,0.3c0.2,0.5,0,1-0.5,1.2
				C164.7,65.9,164.6,65.9,164.5,65.9z M163,62.2c-0.4,0-0.7-0.2-0.9-0.6l-0.1-0.3c-0.2-0.5,0-1,0.5-1.2c0.5-0.2,1,0,1.2,0.5
				l0.1,0.3c0.2,0.5,0,1-0.5,1.2C163.2,62.2,163.1,62.2,163,62.2z M161.5,58.5c-0.4,0-0.7-0.2-0.8-0.6l-0.1-0.3
				c-0.2-0.5,0-1,0.5-1.2c0.5-0.2,1,0,1.2,0.5l0.1,0.3c0.2,0.5,0,1-0.5,1.2C161.7,58.5,161.6,58.5,161.5,58.5z M160,54.7
				c-0.4,0-0.7-0.2-0.9-0.6l-0.1-0.3c-0.2-0.5,0-1,0.5-1.2c0.5-0.2,1,0,1.2,0.5l0.1,0.3c0.2,0.5,0,1-0.5,1.2
				C160.2,54.7,160.1,54.7,160,54.7z M158.5,51c-0.4,0-0.7-0.2-0.9-0.6l-0.1-0.3c-0.2-0.5,0-1,0.5-1.2c0.5-0.2,1,0,1.2,0.5l0.1,0.3
				c0.2,0.5,0,1-0.5,1.2C158.7,51,158.6,51,158.5,51z M157,47.3c-0.4,0-0.7-0.2-0.8-0.6l-0.1-0.3c-0.2-0.5,0-1,0.5-1.2
				c0.5-0.2,1,0,1.2,0.5l0.1,0.3c0.2,0.5,0,1-0.5,1.2C157.2,47.3,157.1,47.3,157,47.3z M155.5,43.6c-0.4,0-0.7-0.2-0.8-0.6l-0.1-0.3
				c-0.2-0.5,0-1,0.5-1.2c0.5-0.2,1,0,1.2,0.5l0.1,0.3c0.2,0.5,0,1-0.5,1.2C155.7,43.6,155.6,43.6,155.5,43.6z M154,39.9
				c-0.4,0-0.7-0.2-0.9-0.6l-0.1-0.3c-0.2-0.5,0-1,0.5-1.2c0.5-0.2,1,0,1.2,0.5l0.1,0.3c0.2,0.5,0,1-0.5,1.2
				C154.2,39.8,154.1,39.9,154,39.9z M152.4,36.1c-0.4,0-0.7-0.2-0.9-0.6l-0.1-0.3c-0.2-0.5,0-1,0.5-1.2c0.5-0.2,1,0,1.2,0.5
				l0.1,0.3c0.2,0.5,0,1-0.5,1.2C152.7,36.1,152.6,36.1,152.4,36.1z"/>
			<path class="st4" d="M199.1,151.4c-0.4,0-0.7-0.2-0.9-0.6c-0.2-0.5,0-1.1,0.5-1.3c0.5-0.2,1,0,1.2,0.4l0.1,0.2
				c0.2,0.5,0,1-0.5,1.2C199.3,151.4,199.2,151.4,199.1,151.4z"/>
		</g>
		<g>
			<path class="st4" d="M126.5,44.3c-0.5,0-0.9-0.4-0.9-0.9c0-0.5,0.4-1,0.9-1c0.5,0,0.9,0.3,0.9,0.8l0,0.2
				C127.4,43.8,127,44.3,126.5,44.3C126.5,44.3,126.5,44.3,126.5,44.3z"/>
			<path class="st4" d="M131.9,181.9c-0.5,0-0.9-0.4-0.9-0.9l0-0.4c0-0.5,0.4-0.9,0.9-1c0.6,0,0.9,0.4,1,0.9l0,0.4
				C132.8,181.5,132.4,181.9,131.9,181.9C131.9,181.9,131.9,181.9,131.9,181.9z M131.7,177.9c-0.5,0-0.9-0.4-0.9-0.9l0-0.4
				c0-0.5,0.4-0.9,0.9-1c0.6,0,0.9,0.4,1,0.9l0,0.4C132.7,177.4,132.3,177.9,131.7,177.9C131.8,177.9,131.8,177.9,131.7,177.9z
				 M131.6,173.8c-0.5,0-0.9-0.4-0.9-0.9l0-0.4c0-0.5,0.4-0.9,0.9-1c0.6,0.1,0.9,0.4,1,0.9l0,0.4
				C132.5,173.4,132.1,173.8,131.6,173.8C131.6,173.8,131.6,173.8,131.6,173.8z M131.4,169.8c-0.5,0-0.9-0.4-0.9-0.9l0-0.4
				c0-0.5,0.4-0.9,0.9-1c0.5,0,0.9,0.4,1,0.9l0,0.4C132.4,169.3,132,169.8,131.4,169.8C131.4,169.8,131.4,169.8,131.4,169.8z
				 M131.3,165.7c-0.5,0-0.9-0.4-0.9-0.9l0-0.4c0-0.5,0.4-0.9,0.9-1c0.5,0,0.9,0.4,1,0.9l0,0.4C132.2,165.3,131.8,165.7,131.3,165.7
				C131.3,165.7,131.3,165.7,131.3,165.7z M131.1,161.7c-0.5,0-0.9-0.4-0.9-0.9l0-0.4c0-0.5,0.4-0.9,0.9-1c0.5,0,0.9,0.4,1,0.9
				l0,0.4C132,161.3,131.6,161.7,131.1,161.7C131.1,161.7,131.1,161.7,131.1,161.7z M130.9,157.6c-0.5,0-0.9-0.4-0.9-0.9l0-0.4
				c0-0.5,0.4-0.9,0.9-1c0.5,0,0.9,0.4,1,0.9l0,0.4C131.9,157.2,131.5,157.6,130.9,157.6C131,157.6,131,157.6,130.9,157.6z
				 M130.8,153.6c-0.5,0-0.9-0.4-0.9-0.9l0-0.4c0-0.5,0.4-0.9,0.9-1c0.5,0,0.9,0.4,1,0.9l0,0.4C131.7,153.2,131.3,153.6,130.8,153.6
				C130.8,153.6,130.8,153.6,130.8,153.6z M130.6,149.6c-0.5,0-0.9-0.4-0.9-0.9l0-0.4c0-0.5,0.4-0.9,0.9-1c0.5,0,0.9,0.4,1,0.9
				l0,0.4C131.6,149.1,131.2,149.5,130.6,149.6C130.6,149.6,130.6,149.6,130.6,149.6z M130.5,145.5c-0.5,0-0.9-0.4-0.9-0.9l0-0.4
				c0-0.5,0.4-0.9,0.9-1c0.5,0.1,0.9,0.4,1,0.9l0,0.4C131.4,145.1,131,145.5,130.5,145.5C130.5,145.5,130.5,145.5,130.5,145.5z
				 M130.3,141.5c-0.5,0-0.9-0.4-0.9-0.9l0-0.4c0-0.5,0.4-0.9,0.9-1c0.5,0,0.9,0.4,1,0.9l0,0.4C131.2,141,130.8,141.4,130.3,141.5
				C130.3,141.5,130.3,141.5,130.3,141.5z M130.1,137.4c-0.5,0-0.9-0.4-0.9-0.9l0-0.4c0-0.5,0.4-0.9,0.9-1c0.5,0,0.9,0.4,1,0.9
				l0,0.4C131.1,137,130.7,137.4,130.1,137.4C130.2,137.4,130.2,137.4,130.1,137.4z M130,133.4c-0.5,0-0.9-0.4-0.9-0.9l0-0.4
				c0-0.5,0.4-0.9,0.9-1c0.5,0,0.9,0.4,1,0.9l0,0.4C130.9,132.9,130.5,133.3,130,133.4C130,133.4,130,133.4,130,133.4z M129.8,129.3
				c-0.5,0-0.9-0.4-0.9-0.9l0-0.4c0-0.5,0.4-0.9,0.9-1c0.5,0,0.9,0.4,1,0.9l0,0.4C130.8,128.9,130.4,129.3,129.8,129.3
				C129.9,129.3,129.8,129.3,129.8,129.3z M129.7,125.3c-0.5,0-0.9-0.4-0.9-0.9l0-0.4c0-0.5,0.4-0.9,0.9-1c0.5-0.1,0.9,0.4,1,0.9
				l0,0.4C130.6,124.8,130.2,125.2,129.7,125.3C129.7,125.3,129.7,125.3,129.7,125.3z M129.5,121.2c-0.5,0-0.9-0.4-0.9-0.9l0-0.4
				c0-0.5,0.4-0.9,0.9-1c0.5,0,0.9,0.4,1,0.9l0,0.4C130.4,120.8,130,121.2,129.5,121.2C129.5,121.2,129.5,121.2,129.5,121.2z
				 M129.3,117.2c-0.5,0-0.9-0.4-0.9-0.9l0-0.4c0-0.5,0.4-0.9,0.9-1c0.5,0.1,0.9,0.4,1,0.9l0,0.4
				C130.3,116.7,129.9,117.1,129.3,117.2C129.4,117.2,129.4,117.2,129.3,117.2z M129.2,113.1c-0.5,0-0.9-0.4-0.9-0.9l0-0.4
				c0-0.5,0.4-0.9,0.9-1c0.5-0.1,0.9,0.4,1,0.9l0,0.4C130.1,112.7,129.7,113.1,129.2,113.1C129.2,113.1,129.2,113.1,129.2,113.1z
				 M129,109.1c-0.5,0-0.9-0.4-0.9-0.9l0-0.4c0-0.5,0.4-0.9,0.9-1c0.6,0,0.9,0.4,1,0.9l0,0.4C130,108.6,129.6,109,129,109.1
				C129.1,109.1,129,109.1,129,109.1z M128.9,105c-0.5,0-0.9-0.4-0.9-0.9l0-0.4c0-0.5,0.4-0.9,0.9-1c0.6,0,0.9,0.4,1,0.9l0,0.4
				C129.8,104.6,129.4,105,128.9,105C128.9,105,128.9,105,128.9,105z M128.7,101c-0.5,0-0.9-0.4-0.9-0.9l0-0.4c0-0.5,0.4-0.9,0.9-1
				c0.6,0,0.9,0.4,1,0.9l0,0.4C129.6,100.5,129.3,100.9,128.7,101C128.7,101,128.7,101,128.7,101z M128.6,96.9
				c-0.5,0-0.9-0.4-0.9-0.9l0-0.4c0-0.5,0.4-0.9,0.9-1c0.6,0,0.9,0.4,1,0.9l0,0.4C129.5,96.5,129.1,96.9,128.6,96.9
				C128.6,96.9,128.6,96.9,128.6,96.9z M128.4,92.9c-0.5,0-0.9-0.4-0.9-0.9l0-0.4c0-0.5,0.4-0.9,0.9-1c0.6,0,0.9,0.4,1,0.9l0,0.4
				C129.3,92.4,128.9,92.8,128.4,92.9C128.4,92.9,128.4,92.9,128.4,92.9z M128.2,88.8c-0.5,0-0.9-0.4-0.9-0.9l0-0.4
				c0-0.5,0.4-0.9,0.9-1c0.6,0,0.9,0.4,1,0.9l0,0.4C129.2,88.4,128.8,88.8,128.2,88.8C128.3,88.8,128.2,88.8,128.2,88.8z
				 M128.1,84.8c-0.5,0-0.9-0.4-0.9-0.9l0-0.4c0-0.5,0.4-0.9,0.9-1c0.6,0,0.9,0.4,1,0.9l0,0.4C129,84.3,128.6,84.7,128.1,84.8
				C128.1,84.8,128.1,84.8,128.1,84.8z M127.9,80.7c-0.5,0-0.9-0.4-0.9-0.9l0-0.4c0-0.5,0.4-0.9,0.9-1c0.6,0.1,0.9,0.4,1,0.9l0,0.4
				C128.8,80.3,128.5,80.7,127.9,80.7C127.9,80.7,127.9,80.7,127.9,80.7z M127.8,76.7c-0.5,0-0.9-0.4-0.9-0.9l0-0.4
				c0-0.5,0.4-0.9,0.9-1c0.5,0,0.9,0.4,1,0.9l0,0.4C128.7,76.2,128.3,76.6,127.8,76.7C127.8,76.7,127.8,76.7,127.8,76.7z
				 M127.6,72.6c-0.5,0-0.9-0.4-0.9-0.9l0-0.4c0-0.5,0.4-0.9,0.9-1c0.5,0,0.9,0.4,1,0.9l0,0.4C128.5,72.2,128.1,72.6,127.6,72.6
				C127.6,72.6,127.6,72.6,127.6,72.6z M127.4,68.6c-0.5,0-0.9-0.4-0.9-0.9l0-0.4c0-0.5,0.4-0.9,0.9-1c0.5,0,0.9,0.4,1,0.9l0,0.4
				C128.4,68.1,128,68.6,127.4,68.6C127.5,68.6,127.4,68.6,127.4,68.6z M127.3,64.5c-0.5,0-0.9-0.4-0.9-0.9l0-0.4
				c0-0.5,0.4-0.9,0.9-1c0.5,0,0.9,0.4,1,0.9l0,0.4C128.2,64.1,127.8,64.5,127.3,64.5C127.3,64.5,127.3,64.5,127.3,64.5z
				 M127.1,60.5c-0.5,0-0.9-0.4-0.9-0.9l0-0.4c0-0.5,0.4-0.9,0.9-1c0.5,0,0.9,0.4,1,0.9l0,0.4C128,60,127.7,60.5,127.1,60.5
				C127.1,60.5,127.1,60.5,127.1,60.5z M127,56.4c-0.5,0-0.9-0.4-0.9-0.9l0-0.4c0-0.5,0.4-0.9,0.9-1c0.5,0,0.9,0.4,1,0.9l0,0.4
				C127.9,56,127.5,56.4,127,56.4C127,56.4,127,56.4,127,56.4z M126.8,52.4c-0.5,0-0.9-0.4-0.9-0.9l0-0.4c0-0.5,0.4-0.9,0.9-1
				c0.5,0.1,0.9,0.4,1,0.9l0,0.4C127.7,51.9,127.3,52.4,126.8,52.4C126.8,52.4,126.8,52.4,126.8,52.4z M126.6,48.3
				c-0.5,0-0.9-0.4-0.9-0.9l0-0.4c0-0.5,0.4-0.9,0.9-1c0.5,0,0.9,0.4,1,0.9l0,0.4C127.6,47.9,127.2,48.3,126.6,48.3
				C126.7,48.3,126.6,48.3,126.6,48.3z"/>
			<path class="st4" d="M132.1,185.8c-0.5,0-0.9-0.4-0.9-0.9c0-0.5,0.4-1,0.9-1c0.5,0,0.9,0.3,0.9,0.8l0,0.2
				C133,185.4,132.6,185.8,132.1,185.8C132.1,185.8,132.1,185.8,132.1,185.8z"/>
		</g>
		<g>
			<path class="st4" d="M138.3,39.6c-0.4,0-0.8-0.3-0.9-0.7c-0.1-0.5,0.2-1.1,0.7-1.2c0.5-0.1,1,0.1,1.1,0.6l0,0.2
				c0.1,0.5-0.2,1-0.7,1.1C138.4,39.6,138.3,39.6,138.3,39.6z"/>
			<path class="st4" d="M165.7,170.3c-0.4,0-0.8-0.3-0.9-0.7l-0.1-0.4c-0.1-0.5,0.2-1,0.7-1.1c0.5-0.1,1,0.2,1.1,0.7l0.1,0.4
				c0.1,0.5-0.2,1-0.7,1.1C165.8,170.3,165.7,170.3,165.7,170.3z M164.8,166.3c-0.4,0-0.8-0.3-0.9-0.7l-0.1-0.4
				c-0.1-0.5,0.2-1,0.7-1.1c0.5-0.1,1,0.2,1.1,0.7l0.1,0.4c0.1,0.5-0.2,1-0.7,1.1C165,166.3,164.9,166.3,164.8,166.3z M164,162.3
				c-0.4,0-0.8-0.3-0.9-0.7l-0.1-0.4c-0.1-0.5,0.2-1,0.7-1.1c0.5-0.1,1,0.2,1.1,0.7l0.1,0.4c0.1,0.5-0.2,1-0.7,1.1
				C164.1,162.3,164.1,162.3,164,162.3z M163.2,158.4c-0.4,0-0.8-0.3-0.9-0.7l-0.1-0.4c-0.1-0.5,0.2-1,0.7-1.1
				c0.5-0.1,1,0.2,1.1,0.7l0.1,0.4c0.1,0.5-0.2,1-0.7,1.1C163.3,158.4,163.2,158.4,163.2,158.4z M162.3,154.4
				c-0.4,0-0.8-0.3-0.9-0.7l-0.1-0.4c-0.1-0.5,0.2-1,0.7-1.1c0.5-0.1,1,0.2,1.1,0.7l0.1,0.4c0.1,0.5-0.2,1-0.7,1.1
				C162.5,154.4,162.4,154.4,162.3,154.4z M161.5,150.5c-0.4,0-0.8-0.3-0.9-0.7l-0.1-0.4c-0.1-0.5,0.2-1,0.7-1.1
				c0.5-0.1,1,0.2,1.1,0.7l0.1,0.4c0.1,0.5-0.2,1-0.7,1.1C161.6,150.5,161.6,150.5,161.5,150.5z M160.7,146.5
				c-0.4,0-0.8-0.3-0.9-0.7l-0.1-0.4c-0.1-0.5,0.2-1,0.7-1.1c0.5-0.1,1,0.2,1.1,0.7l0.1,0.4c0.1,0.5-0.2,1-0.7,1.1
				C160.8,146.5,160.7,146.5,160.7,146.5z M159.9,142.5c-0.4,0-0.8-0.3-0.9-0.7l-0.1-0.4c-0.1-0.5,0.2-1,0.7-1.1
				c0.5-0.1,1,0.2,1.1,0.7l0.1,0.4c0.1,0.5-0.2,1-0.7,1.1C160,142.5,159.9,142.5,159.9,142.5z M159,138.6c-0.4,0-0.8-0.3-0.9-0.7
				l-0.1-0.4c-0.1-0.5,0.2-1,0.7-1.1c0.5-0.1,1,0.2,1.1,0.7l0.1,0.4c0.1,0.5-0.2,1-0.7,1.1C159.2,138.6,159.1,138.6,159,138.6z
				 M158.2,134.6c-0.4,0-0.8-0.3-0.9-0.7l-0.1-0.4c-0.1-0.5,0.2-1,0.7-1.1c0.5-0.1,1,0.2,1.1,0.7l0.1,0.4c0.1,0.5-0.2,1-0.7,1.1
				C158.3,134.6,158.2,134.6,158.2,134.6z M157.4,130.7c-0.4,0-0.8-0.3-0.9-0.7l-0.1-0.4c-0.1-0.5,0.2-1,0.7-1.1
				c0.5-0.1,1,0.2,1.1,0.7l0.1,0.4c0.1,0.5-0.2,1-0.7,1.1C157.5,130.7,157.4,130.7,157.4,130.7z M156.5,126.7
				c-0.4,0-0.8-0.3-0.9-0.7l-0.1-0.4c-0.1-0.5,0.2-1,0.7-1.1c0.5-0.1,1,0.2,1.1,0.7l0.1,0.4c0.1,0.5-0.2,1-0.7,1.1
				C156.7,126.7,156.6,126.7,156.5,126.7z M155.7,122.7c-0.4,0-0.8-0.3-0.9-0.7l-0.1-0.4c-0.1-0.5,0.2-1,0.7-1.1
				c0.5-0.1,1,0.2,1.1,0.7l0.1,0.4c0.1,0.5-0.2,1-0.7,1.1C155.8,122.7,155.8,122.7,155.7,122.7z M154.9,118.8
				c-0.4,0-0.8-0.3-0.9-0.7l-0.1-0.4c-0.1-0.5,0.2-1,0.7-1.1c0.5-0.1,1,0.2,1.1,0.7l0.1,0.4c0.1,0.5-0.2,1-0.7,1.1
				C155,118.8,154.9,118.8,154.9,118.8z M154,114.8c-0.4,0-0.8-0.3-0.9-0.7l-0.1-0.4c-0.1-0.5,0.2-1,0.7-1.1c0.5-0.1,1,0.2,1.1,0.7
				l0.1,0.4c0.1,0.5-0.2,1-0.7,1.1C154.2,114.8,154.1,114.8,154,114.8z M153.2,110.9c-0.4,0-0.8-0.3-0.9-0.7l-0.1-0.4
				c-0.1-0.5,0.2-1,0.7-1.1c0.5-0.1,1,0.2,1.1,0.7l0.1,0.4c0.1,0.5-0.2,1-0.7,1.1C153.3,110.9,153.3,110.9,153.2,110.9z
				 M152.4,106.9c-0.4,0-0.8-0.3-0.9-0.7l-0.1-0.4c-0.1-0.5,0.2-1,0.7-1.1c0.5-0.1,1,0.2,1.1,0.7l0.1,0.4c0.1,0.5-0.2,1-0.7,1.1
				C152.5,106.9,152.4,106.9,152.4,106.9z M151.5,102.9c-0.4,0-0.8-0.3-0.9-0.7l-0.1-0.4c-0.1-0.5,0.2-1,0.7-1.1
				c0.5-0.1,1,0.2,1.1,0.7l0.1,0.4c0.1,0.5-0.2,1-0.7,1.1C151.7,102.9,151.6,102.9,151.5,102.9z M150.7,99c-0.4,0-0.8-0.3-0.9-0.7
				l-0.1-0.4c-0.1-0.5,0.2-1,0.7-1.1c0.5-0.1,1,0.2,1.1,0.7l0.1,0.4c0.1,0.5-0.2,1-0.7,1.1C150.8,99,150.8,99,150.7,99z M149.9,95
				c-0.4,0-0.8-0.3-0.9-0.7l-0.1-0.4c-0.1-0.5,0.2-1,0.7-1.1c0.5-0.1,1,0.2,1.1,0.7l0.1,0.4c0.1,0.5-0.2,1-0.7,1.1
				C150,95,149.9,95,149.9,95z M149.1,91.1c-0.4,0-0.8-0.3-0.9-0.7l-0.1-0.4c-0.1-0.5,0.2-1,0.7-1.1c0.5-0.1,1,0.2,1.1,0.7L150,90
				c0.1,0.5-0.2,1-0.7,1.1C149.2,91.1,149.1,91.1,149.1,91.1z M148.2,87.1c-0.4,0-0.8-0.3-0.9-0.7l-0.1-0.4c-0.1-0.5,0.2-1,0.7-1.1
				c0.5-0.1,1,0.2,1.1,0.7l0.1,0.4c0.1,0.5-0.2,1-0.7,1.1C148.4,87.1,148.3,87.1,148.2,87.1z M147.4,83.1c-0.4,0-0.8-0.3-0.9-0.7
				l-0.1-0.4c-0.1-0.5,0.2-1,0.7-1.1c0.5-0.1,1,0.2,1.1,0.7l0.1,0.4c0.1,0.5-0.2,1-0.7,1.1C147.5,83.1,147.5,83.1,147.4,83.1z
				 M146.6,79.2c-0.4,0-0.8-0.3-0.9-0.7l-0.1-0.4c-0.1-0.5,0.2-1,0.7-1.1c0.5-0.1,1,0.2,1.1,0.7l0.1,0.4c0.1,0.5-0.2,1-0.7,1.1
				C146.7,79.2,146.6,79.2,146.6,79.2z M145.7,75.2c-0.4,0-0.8-0.3-0.9-0.7l-0.1-0.4c-0.1-0.5,0.2-1,0.7-1.1c0.5-0.1,1,0.2,1.1,0.7
				l0.1,0.4c0.1,0.5-0.2,1-0.7,1.1C145.9,75.2,145.8,75.2,145.7,75.2z M144.9,71.3c-0.4,0-0.8-0.3-0.9-0.7l-0.1-0.4
				c-0.1-0.5,0.2-1,0.7-1.1c0.5-0.1,1,0.2,1.1,0.7l0.1,0.4c0.1,0.5-0.2,1-0.7,1.1C145,71.2,145,71.3,144.9,71.3z M144.1,67.3
				c-0.4,0-0.8-0.3-0.9-0.7l-0.1-0.4c-0.1-0.5,0.2-1,0.7-1.1c0.5-0.1,1,0.2,1.1,0.7l0.1,0.4c0.1,0.5-0.2,1-0.7,1.1
				C144.2,67.3,144.1,67.3,144.1,67.3z M143.2,63.3c-0.4,0-0.8-0.3-0.9-0.7l-0.1-0.4c-0.1-0.5,0.2-1,0.7-1.1c0.5-0.1,1,0.2,1.1,0.7
				l0.1,0.4c0.1,0.5-0.2,1-0.7,1.1C143.4,63.3,143.3,63.3,143.2,63.3z M142.4,59.4c-0.4,0-0.8-0.3-0.9-0.7l-0.1-0.4
				c-0.1-0.5,0.2-1,0.7-1.1c0.5-0.1,1,0.2,1.1,0.7l0.1,0.4c0.1,0.5-0.2,1-0.7,1.1C142.5,59.4,142.5,59.4,142.4,59.4z M141.6,55.4
				c-0.4,0-0.8-0.3-0.9-0.7l-0.1-0.4c-0.1-0.5,0.2-1,0.7-1.1c0.5-0.1,1,0.2,1.1,0.7l0.1,0.4c0.1,0.5-0.2,1-0.7,1.1
				C141.7,55.4,141.6,55.4,141.6,55.4z M140.8,51.5c-0.4,0-0.8-0.3-0.9-0.7l-0.1-0.4c-0.1-0.5,0.2-1,0.7-1.1c0.5-0.1,1,0.2,1.1,0.7
				l0.1,0.4c0.1,0.5-0.2,1-0.7,1.1C140.9,51.4,140.8,51.5,140.8,51.5z M139.9,47.5c-0.4,0-0.8-0.3-0.9-0.7l-0.1-0.4
				c-0.1-0.5,0.2-1,0.7-1.1c0.5-0.1,1,0.2,1.1,0.7l0.1,0.4c0.1,0.5-0.2,1-0.7,1.1C140,47.5,140,47.5,139.9,47.5z M139.1,43.5
				c-0.4,0-0.8-0.3-0.9-0.7l-0.1-0.4c-0.1-0.5,0.2-1,0.7-1.1c0.5-0.1,1,0.2,1.1,0.7l0.1,0.4c0.1,0.5-0.2,1-0.7,1.1
				C139.2,43.5,139.2,43.5,139.1,43.5z"/>
			<path class="st4" d="M166.5,174c-0.4,0-0.8-0.3-0.9-0.7c-0.1-0.5,0.2-1.1,0.7-1.2c0.5-0.1,1,0.1,1.1,0.6l0,0.2
				c0.1,0.5-0.2,1-0.7,1.1C166.6,174,166.5,174,166.5,174z"/>
		</g>
		<path class="st4" d="M182.9,161.3c-0.8,0-1.5-0.5-1.8-1.3l-0.2-0.7c-0.3-1,0.3-2,1.2-2.3c1-0.3,2,0.3,2.3,1.2l0.2,0.7
			c0.3,1-0.3,2-1.2,2.3C183.3,161.3,183.1,161.3,182.9,161.3z M180.6,153.6c-0.8,0-1.5-0.5-1.8-1.3l-0.2-0.7c-0.3-1,0.3-2,1.2-2.3
			c1-0.3,2,0.3,2.3,1.2l0.2,0.7c0.3,1-0.3,2-1.2,2.3C180.9,153.6,180.8,153.6,180.6,153.6z M178.2,145.9c-0.8,0-1.5-0.5-1.8-1.3
			l-0.2-0.7c-0.3-1,0.3-2,1.2-2.3c1-0.3,2,0.3,2.3,1.2l0.2,0.7c0.3,1-0.3,2-1.2,2.3C178.6,145.9,178.4,145.9,178.2,145.9z
			 M175.9,138.2c-0.8,0-1.5-0.5-1.8-1.3l-0.2-0.7c-0.3-1,0.3-2,1.2-2.3c1-0.3,2,0.2,2.3,1.2l0.2,0.7c0.3,1-0.3,2-1.2,2.3
			C176.3,138.2,176.1,138.2,175.9,138.2z M173.6,130.5c-0.8,0-1.5-0.5-1.8-1.3l-0.2-0.7c-0.3-1,0.3-2,1.2-2.3c1-0.3,2,0.3,2.3,1.2
			l0.2,0.7c0.3,1-0.3,2-1.2,2.3C173.9,130.5,173.7,130.5,173.6,130.5z M171.2,122.8c-0.8,0-1.5-0.5-1.7-1.3l-0.2-0.7
			c-0.3-1,0.2-2,1.2-2.3c1-0.3,2,0.2,2.3,1.2l0.2,0.7c0.3,1-0.2,2-1.2,2.3C171.6,122.8,171.4,122.8,171.2,122.8z M168.9,115.1
			c-0.8,0-1.5-0.5-1.8-1.3l-0.2-0.7c-0.3-1,0.3-2,1.2-2.3c1-0.3,2,0.3,2.3,1.2l0.2,0.7c0.3,1-0.3,2-1.2,2.3
			C169.2,115.1,169.1,115.1,168.9,115.1z M166.5,107.4c-0.8,0-1.5-0.5-1.8-1.3l-0.2-0.7c-0.3-1,0.3-2,1.2-2.3c1-0.3,2,0.3,2.3,1.2
			l0.2,0.7c0.3,1-0.3,2-1.2,2.3C166.9,107.4,166.7,107.4,166.5,107.4z M164.2,99.7c-0.8,0-1.5-0.5-1.8-1.3l-0.2-0.7
			c-0.3-1,0.3-2,1.2-2.3c1-0.3,2,0.2,2.3,1.2l0.2,0.7c0.3,1-0.3,2-1.2,2.3C164.6,99.7,164.4,99.7,164.2,99.7z M161.9,92
			c-0.8,0-1.5-0.5-1.8-1.3l-0.2-0.7c-0.3-1,0.3-2,1.2-2.3c1-0.3,2,0.3,2.3,1.2l0.2,0.7c0.3,1-0.3,2-1.2,2.3
			C162.2,92,162,92,161.9,92z M159.5,84.3c-0.8,0-1.5-0.5-1.8-1.3l-0.2-0.7c-0.3-1,0.3-2,1.2-2.3c1-0.3,2,0.2,2.3,1.2l0.2,0.7
			c0.3,1-0.3,2-1.2,2.3C159.9,84.3,159.7,84.3,159.5,84.3z M157.2,76.6c-0.8,0-1.5-0.5-1.8-1.3l-0.2-0.7c-0.3-1,0.3-2,1.2-2.3
			c1-0.3,2,0.3,2.3,1.2l0.2,0.7c0.3,1-0.3,2-1.2,2.3C157.5,76.5,157.4,76.6,157.2,76.6z M154.9,68.9c-0.8,0-1.5-0.5-1.8-1.3
			l-0.2-0.7c-0.3-1,0.3-2,1.2-2.3c1-0.3,2,0.2,2.3,1.2l0.2,0.7c0.3,1-0.3,2-1.2,2.3C155.2,68.8,155,68.9,154.9,68.9z M152.5,61.2
			c-0.8,0-1.5-0.5-1.8-1.3l-0.2-0.7c-0.3-1,0.3-2,1.2-2.3c1-0.3,2,0.3,2.3,1.2l0.2,0.7c0.3,1-0.3,2-1.2,2.3
			C152.9,61.1,152.7,61.2,152.5,61.2z M150.2,53.5c-0.8,0-1.5-0.5-1.8-1.3l-0.2-0.7c-0.3-1,0.3-2,1.2-2.3c1-0.3,2,0.2,2.3,1.2
			l0.2,0.7c0.3,1-0.3,2-1.2,2.3C150.5,53.4,150.3,53.5,150.2,53.5z M147.8,45.8c-0.8,0-1.5-0.5-1.8-1.3l-0.2-0.7
			c-0.3-1,0.3-2,1.2-2.3c1-0.3,2,0.3,2.3,1.2l0.2,0.7c0.3,1-0.3,2-1.2,2.3C148.2,45.7,148,45.8,147.8,45.8z M145.5,38.1
			c-0.8,0-1.5-0.5-1.8-1.3l-0.2-0.7c-0.3-1,0.3-2,1.2-2.3c1-0.3,2,0.2,2.3,1.2l0.2,0.7c0.3,1-0.3,2-1.2,2.3
			C145.9,38,145.7,38.1,145.5,38.1z"/>
		<path class="st4" d="M113.8,177.7C113.8,177.7,113.8,177.7,113.8,177.7c-1.1,0-1.9-0.9-1.8-1.9l0-0.7c0-1,0.9-1.8,1.8-1.8
			c0,0,0,0,0.1,0c1,0,1.8,0.9,1.8,1.9l0,0.7C115.6,176.9,114.8,177.7,113.8,177.7z M114.2,169.6
			C114.2,169.6,114.1,169.6,114.2,169.6c-1.1,0-1.9-0.9-1.8-1.9l0-0.7c0-1,0.9-1.8,1.8-1.8c0,0,0,0,0.1,0c1,0,1.8,0.9,1.8,1.9l0,0.7
			C116,168.8,115.2,169.6,114.2,169.6z M114.5,161.6C114.5,161.6,114.4,161.6,114.5,161.6c-1.1,0-1.9-0.9-1.8-1.9l0-0.7
			c0-1,0.7-1.8,1.9-1.7c1,0,1.8,0.9,1.7,1.9l0,0.7C116.3,160.8,115.5,161.6,114.5,161.6z M114.8,153.5
			C114.8,153.5,114.8,153.5,114.8,153.5c-1.1,0-1.9-0.9-1.8-1.9l0-0.7c0-1,0.7-1.8,1.9-1.8c1,0,1.8,0.9,1.8,1.9l0,0.7
			C116.6,152.8,115.8,153.5,114.8,153.5z M115.2,145.5C115.1,145.5,115.1,145.5,115.2,145.5c-1.1,0-1.9-0.9-1.8-1.9l0-0.7
			c0-1,0.7-1.8,1.9-1.8c1,0,1.8,0.9,1.8,1.9l0,0.7C116.9,144.7,116.1,145.5,115.2,145.5z M115.5,137.4
			C115.5,137.4,115.4,137.4,115.5,137.4c-1.1,0-1.9-0.9-1.8-1.9l0-0.7c0-1,0.7-1.8,1.9-1.7c1,0,1.8,0.9,1.7,1.9l0,0.7
			C117.3,136.7,116.5,137.4,115.5,137.4z M115.8,129.4C115.8,129.4,115.8,129.4,115.8,129.4c-1.1,0-1.9-0.9-1.8-1.9l0-0.7
			c0-1,0.7-1.8,1.9-1.8c1,0,1.8,0.9,1.8,1.9l0,0.7C117.6,128.6,116.8,129.4,115.8,129.4z M116.1,121.4
			C116.1,121.4,116.1,121.4,116.1,121.4c-1.1,0-1.9-0.9-1.8-1.9l0-0.7c0-1,0.7-1.8,1.9-1.8c1,0,1.8,0.9,1.8,1.9l0,0.7
			C117.9,120.6,117.1,121.4,116.1,121.4z M116.5,113.3C116.4,113.3,116.4,113.3,116.5,113.3c-1.1,0-1.9-0.9-1.8-1.9l0-0.7
			c0-1,0.8-1.9,1.9-1.7c1,0,1.8,0.9,1.7,1.9l0,0.7C118.3,112.5,117.4,113.3,116.5,113.3z M116.8,105.3
			C116.8,105.3,116.7,105.3,116.8,105.3c-1.1,0-1.9-0.9-1.8-1.9l0-0.7c0-1,0.7-1.8,1.9-1.8c1,0,1.8,0.9,1.8,1.9l0,0.7
			C118.6,104.5,117.8,105.3,116.8,105.3z M117.1,97.2C117.1,97.2,117.1,97.2,117.1,97.2c-1.1,0-1.9-0.9-1.8-1.9l0-0.7
			c0-1,0.7-1.9,1.9-1.8c1,0,1.8,0.9,1.8,1.9l0,0.7C118.9,96.5,118.1,97.2,117.1,97.2z M117.4,89.2C117.4,89.2,117.4,89.2,117.4,89.2
			c-1.1,0-1.9-0.9-1.8-1.9l0-0.7c0-1,0.9-1.8,1.9-1.7c1,0,1.8,0.9,1.8,1.9l0,0.7C119.2,88.4,118.4,89.2,117.4,89.2z M117.8,81.1
			C117.8,81.1,117.7,81.1,117.8,81.1c-1.1,0-1.9-0.9-1.8-1.9l0-0.7c0-1,0.8-1.9,1.9-1.8c1,0,1.8,0.9,1.8,1.9l0,0.7
			C119.6,80.4,118.8,81.1,117.8,81.1z M118.1,73.1C118.1,73.1,118.1,73.1,118.1,73.1c-1.1,0-1.9-0.9-1.8-1.9l0-0.7
			c0-1,0.8-1.8,1.9-1.8c1,0,1.8,0.9,1.8,1.9l0,0.7C119.9,72.3,119.1,73.1,118.1,73.1z M118.4,65.1C118.4,65.1,118.4,65.1,118.4,65.1
			c-1.1,0-1.9-0.9-1.8-1.9l0-0.7c0-1,0.8-1.8,1.9-1.7c1,0,1.8,0.9,1.7,1.9l0,0.7C120.2,64.3,119.4,65.1,118.4,65.1z M118.8,57
			C118.7,57,118.7,57,118.8,57c-1.1,0-1.9-0.9-1.8-1.9l0-0.7c0-1,0.8-1.8,1.9-1.8c1,0,1.8,0.9,1.8,1.9l0,0.7
			C120.6,56.2,119.7,57,118.8,57z M119.1,49C119.1,49,119,49,119.1,49c-1.1,0-1.9-0.9-1.8-1.9l0-0.7c0-1,0.8-1.9,1.9-1.8
			c1,0,1.8,0.9,1.8,1.9l0,0.7C120.9,48.2,120.1,49,119.1,49z"/>
		<path class="st4" d="M149.8,179.4c-0.9,0-1.7-0.7-1.8-1.6l-0.1-0.7c-0.1-1,0.6-1.9,1.6-2c1-0.1,1.9,0.6,2,1.6l0.1,0.7
			c0.1,1-0.6,1.9-1.6,2C149.9,179.4,149.8,179.4,149.8,179.4z M148.7,171.4c-0.9,0-1.7-0.7-1.8-1.6l-0.1-0.7c-0.1-1,0.6-1.9,1.6-2
			c1-0.1,1.9,0.6,2,1.6l0.1,0.7c0.1,1-0.6,1.9-1.6,2C148.9,171.4,148.8,171.4,148.7,171.4z M147.7,163.4c-0.9,0-1.7-0.7-1.8-1.6
			l-0.1-0.7c-0.1-1,0.6-1.9,1.6-2c1-0.1,1.9,0.6,2,1.6l0.1,0.7c0.1,1-0.6,1.9-1.6,2C147.8,163.4,147.8,163.4,147.7,163.4z
			 M146.6,155.4c-0.9,0-1.7-0.7-1.8-1.6l-0.1-0.7c-0.1-1,0.6-1.9,1.6-2c1-0.1,1.9,0.6,2,1.6l0.1,0.7c0.1,1-0.6,1.9-1.6,2
			C146.8,155.4,146.7,155.4,146.6,155.4z M145.6,147.4c-0.9,0-1.7-0.7-1.8-1.6l-0.1-0.7c-0.1-1,0.6-1.9,1.6-2c1-0.1,1.9,0.6,2,1.6
			l0.1,0.7c0.1,1-0.6,1.9-1.6,2C145.8,147.4,145.7,147.4,145.6,147.4z M144.6,139.5c-0.9,0-1.7-0.7-1.8-1.6l-0.1-0.7
			c-0.1-1,0.6-1.9,1.6-2c1-0.1,1.9,0.6,2,1.6l0.1,0.7c0.1,1-0.6,1.9-1.6,2C144.7,139.5,144.7,139.5,144.6,139.5z M143.5,131.5
			c-0.9,0-1.7-0.7-1.8-1.6l-0.1-0.7c-0.1-1,0.6-1.9,1.6-2c1-0.1,1.9,0.6,2,1.6l0.1,0.7c0.1,1-0.6,1.9-1.6,2
			C143.7,131.5,143.6,131.5,143.5,131.5z M142.5,123.5c-0.9,0-1.7-0.7-1.8-1.6l-0.1-0.7c-0.1-1,0.6-1.9,1.6-2c1-0.1,1.9,0.6,2,1.6
			l0.1,0.7c0.1,1-0.6,1.9-1.6,2C142.7,123.5,142.6,123.5,142.5,123.5z M141.5,115.5c-0.9,0-1.7-0.7-1.8-1.6l-0.1-0.7
			c-0.1-1,0.6-1.9,1.6-2c1-0.1,1.9,0.6,2,1.6l0.1,0.7c0.1,1-0.6,1.9-1.6,2C141.6,115.5,141.5,115.5,141.5,115.5z M140.4,107.5
			c-0.9,0-1.7-0.7-1.8-1.6l-0.1-0.7c-0.1-1,0.6-1.9,1.6-2c1-0.1,1.9,0.6,2,1.6l0.1,0.7c0.1,1-0.6,1.9-1.6,2
			C140.6,107.5,140.5,107.5,140.4,107.5z M139.4,99.6c-0.9,0-1.7-0.7-1.8-1.6l-0.1-0.7c-0.1-1,0.6-1.9,1.6-2c1-0.1,1.9,0.6,2,1.6
			l0.1,0.7c0.1,1-0.6,1.9-1.6,2C139.6,99.5,139.5,99.6,139.4,99.6z M138.4,91.6c-0.9,0-1.7-0.7-1.8-1.6l-0.1-0.7
			c-0.1-1,0.6-1.9,1.6-2c1-0.1,1.9,0.6,2,1.6l0.1,0.7c0.1,1-0.6,1.9-1.6,2C138.5,91.6,138.4,91.6,138.4,91.6z M137.3,83.6
			c-0.9,0-1.7-0.7-1.8-1.6l-0.1-0.7c-0.1-1,0.6-1.9,1.6-2c1-0.1,1.9,0.6,2,1.6l0.1,0.7c0.1,1-0.6,1.9-1.6,2
			C137.5,83.6,137.4,83.6,137.3,83.6z M136.3,75.6c-0.9,0-1.7-0.7-1.8-1.6l-0.1-0.7c-0.1-1,0.6-1.9,1.6-2c1-0.1,1.9,0.6,2,1.6
			l0.1,0.7c0.1,1-0.6,1.9-1.6,2C136.4,75.6,136.4,75.6,136.3,75.6z M135.3,67.6c-0.9,0-1.7-0.7-1.8-1.6l-0.1-0.7
			c-0.1-1,0.6-1.9,1.6-2c1-0.1,1.9,0.6,2,1.6l0.1,0.7c0.1,1-0.6,1.9-1.6,2C135.4,67.6,135.3,67.6,135.3,67.6z M134.2,59.6
			c-0.9,0-1.7-0.7-1.8-1.6l-0.1-0.7c-0.1-1,0.6-1.9,1.6-2c1-0.1,1.9,0.6,2,1.6l0.1,0.7c0.1,1-0.6,1.9-1.6,2
			C134.4,59.6,134.3,59.6,134.2,59.6z M133.2,51.7c-0.9,0-1.7-0.7-1.8-1.6l-0.1-0.7c-0.1-1,0.6-1.9,1.6-2c1-0.1,1.9,0.6,2,1.6
			l0.1,0.7c0.1,1-0.6,1.9-1.6,2C133.3,51.7,133.3,51.7,133.2,51.7z M132.1,43.7c-0.9,0-1.7-0.7-1.8-1.6l-0.1-0.7
			c-0.1-1,0.6-1.9,1.6-2c1-0.1,1.9,0.6,2,1.6l0.1,0.7c0.1,1-0.6,1.9-1.6,2C132.3,43.7,132.2,43.7,132.1,43.7z"/>
	</g>
</g>
</svg>
