<?xml version="1.0" encoding="utf-8"?>
<!-- Generator: Adobe Illustrator 25.4.1, SVG Export Plug-In . SVG Version: 6.00 Build 0)  -->
<svg version="1.1" id="Capa_1" xmlns="http://www.w3.org/2000/svg" xmlns:xlink="http://www.w3.org/1999/xlink" x="0px" y="0px"
	 viewBox="0 0 200 200" style="enable-background:new 0 0 200 200;" xml:space="preserve">
<style type="text/css">
	.st0{fill:#DADADA;}
	.st1{opacity:0.15;fill:#1D1D1B;}
	.st2{fill:#EDEDED;}
	.st3{opacity:0.75;fill:#FFFFFF;}
	.st4{fill:#072446;}
</style>
<g>
	<path class="st0" d="M43,14.9l88.4,79.6l0.1-0.1c3.3-3.6,0.9-11.5-1.1-13.2L55,13.9C53,12.1,46.3,11.2,43,14.9L43,14.9z"/>
	<polygon class="st0" points="131,200 48,200 37.1,95.5 152.8,95.1 	"/>
	<path class="st1" d="M51.7,195.9l-0.8-7.4c48.8-1.8,63.8-14.6,89.9-58.6l-13.2,66H51.7z"/>
	<path class="st2" d="M131,100.1c0,0.7,0.1,1.4,0.1,2.1c0,29.8-25.8,54-57.7,54c-31.9,0-57.7-24.2-57.7-54c0-0.7,0.1-1.4,0.1-2.1
		H131z"/>
	<path class="st3" d="M20,104.3c1.2,26.5,24.6,47.7,53.3,47.8c-20.9-7.9-36.2-19.9-41.2-47.8H20z"/>
	<rect x="12.4" y="91.5" class="st0" width="118.9" height="14.3"/>
	<path class="st4" d="M12.4,91.5h118.9v0c0-2.6-2.1-4.8-4.8-4.8H17.2C14.5,86.7,12.4,88.8,12.4,91.5L12.4,91.5z"/>
	<path class="st0" d="M136.9,0h44.8c3.3,0,5.9,2.6,5.9,5.9v5.8H131V5.9C131,2.6,133.7,0,136.9,0z"/>
	<path class="st3" d="M151.7,4.1h-14.7c-1,0-1.8,0.8-1.8,1.8v1.7L151.7,4.1z"/>
	<path class="st2" d="M187.6,91.4V11.7H131v79.7v14.8h46.3c5.7,0,10.3-4.6,10.3-10.3L187.6,91.4L187.6,91.4z"/>
	<path class="st3" d="M135.2,15.9V102c0,0,4.5-67.7,22.9-86.2H135.2z"/>
</g>
</svg>
